# Blender v2.90.1 OBJ File: 'pickaxe.blend'
# www.blender.org
mtllib pickaxe.mtl
o Cube
v -2.610416 -0.163018 0.163018
v -3.161777 -0.163018 0.163018
v -2.610416 0.163018 -0.163018
v -3.161777 0.163018 -0.163018
v -3.161777 -0.163018 -0.163018
v -3.161777 0.163018 0.163018
v -2.610416 -0.163018 -0.163018
v -2.610416 0.163018 0.163018
v -3.161777 0.093949 0.281846
v -3.161777 -0.093949 0.281846
v -2.610416 0.093949 0.281846
v -2.610416 -0.093949 0.281846
v -3.161777 0.093949 -0.281846
v -3.161777 -0.093949 -0.281846
v -2.610416 0.093949 -0.281846
v -2.610416 -0.093949 -0.281846
v -3.075827 -0.075159 -1.005661
v -2.786269 -0.052611 -1.807689
v -2.431864 -0.031567 -2.414379
v -2.132154 -0.015783 -2.693177
v -2.025019 -0.006313 -2.756706
v -1.985541 0.000000 -2.769269
v -1.985541 0.000000 -2.769269
v -2.025019 0.006313 -2.756706
v -2.132154 0.015783 -2.693177
v -2.431864 0.031567 -2.414379
v -2.786269 0.052611 -1.807689
v -3.075827 0.075159 -1.005661
v -1.985541 0.000000 -2.769269
v -2.000828 0.006313 -2.730765
v -2.071676 0.015783 -2.628323
v -2.281459 0.031567 -2.320395
v -2.497137 0.052611 -1.746233
v -2.655161 0.075159 -0.968858
v -1.985541 0.000000 -2.769269
v -2.000828 -0.006313 -2.730765
v -2.071676 -0.015783 -2.628323
v -2.281459 -0.031567 -2.320395
v -2.497137 -0.052611 -1.746233
v -2.655161 -0.075159 -0.968858
v -3.075827 -0.075159 1.005661
v -2.786269 -0.052611 1.807689
v -2.431864 -0.031567 2.414379
v -2.132154 -0.015783 2.693177
v -2.025019 -0.006313 2.756706
v -1.985541 0.000000 2.769270
v -1.985541 0.000000 2.769270
v -2.000828 -0.006313 2.730764
v -2.071676 -0.015783 2.628323
v -2.281459 -0.031567 2.320395
v -2.497137 -0.052611 1.746233
v -2.655161 -0.075159 0.968858
v -3.075827 0.075159 1.005661
v -2.786269 0.052611 1.807689
v -2.431864 0.031567 2.414379
v -2.132154 0.015783 2.693177
v -2.025019 0.006313 2.756706
v -1.985541 0.000000 2.769270
v -2.655161 0.075159 0.968858
v -2.497137 0.052611 1.746233
v -2.281460 0.031567 2.320395
v -2.071676 0.015783 2.628323
v -2.000828 0.006313 2.730764
v -1.985541 0.000000 2.769270
v -3.259865 -0.163018 0.163018
v -3.259865 0.163018 0.163018
v -3.259865 0.163018 -0.163018
v -3.259865 -0.163018 -0.163018
v -3.259865 -0.093949 -0.281846
v -3.259865 -0.093949 0.281846
v -3.259865 0.093949 0.281846
v -3.259865 0.093949 -0.281846
v -2.538764 -0.163018 0.163018
v -2.538764 -0.163018 -0.163018
v -2.538764 0.163018 -0.163018
v -2.538764 0.163018 0.163018
v -2.538764 -0.093949 -0.281846
v -2.538764 -0.093949 0.281846
v -2.538764 0.093949 0.281846
v -2.538764 0.093949 -0.281846
v -2.610416 -0.093949 0.281846
v -2.610416 -0.281846 0.093949
v -2.610416 -0.226812 0.226812
v -3.161777 -0.281846 0.093949
v -3.161777 -0.093949 0.281846
v -3.161777 -0.226812 0.226812
v -2.610416 0.093949 -0.281846
v -2.610416 0.281846 -0.093949
v -2.610416 0.226812 -0.226812
v -3.161777 0.093949 -0.281846
v -3.161777 0.281846 -0.093949
v -3.161777 0.226812 -0.226812
v -3.161777 -0.093949 -0.281846
v -3.161777 -0.281846 -0.093949
v -3.161777 -0.226812 -0.226812
v -3.161777 0.281846 0.093949
v -3.161777 0.093949 0.281846
v -3.161777 0.226812 0.226812
v -2.610416 -0.281846 -0.093949
v -2.610416 -0.093949 -0.281846
v -2.610416 -0.226812 -0.226812
v -2.610416 0.281846 0.093949
v -2.610416 0.093949 0.281846
v -2.610416 0.226812 0.226812
v -3.259865 -0.093949 0.281846
v -3.259865 -0.281846 0.093949
v -3.259865 -0.163024 0.163024
v -3.259865 -0.226812 0.226812
v -3.259865 0.281846 0.093949
v -3.259865 0.093949 0.281846
v -3.259865 0.163024 0.163024
v -3.259865 0.226812 0.226812
v -3.259865 -0.281846 -0.093949
v -3.259865 -0.093949 -0.281846
v -3.259865 -0.163024 -0.163024
v -3.259865 -0.226812 -0.226812
v -3.259865 0.093949 -0.281846
v -3.259865 0.281846 -0.093949
v -3.259865 0.163024 -0.163024
v -3.259865 0.226812 -0.226812
v -2.538764 -0.281846 0.093949
v -2.538764 -0.093949 0.281846
v -2.538764 -0.163024 0.163024
v -2.538764 -0.226812 0.226812
v -2.538764 -0.093949 -0.281846
v -2.538764 -0.281846 -0.093949
v -2.538764 -0.163024 -0.163024
v -2.538764 -0.226812 -0.226812
v -2.538764 0.281846 -0.093949
v -2.538764 0.093949 -0.281846
v -2.538764 0.163024 -0.163024
v -2.538764 0.226812 -0.226812
v -2.538764 0.093949 0.281846
v -2.538764 0.281846 0.093949
v -2.538764 0.163024 0.163024
v -2.538764 0.226812 0.226812
v -3.414773 0.081509 -0.163018
v -3.414773 0.163018 -0.081509
v -3.414773 -0.163018 -0.081509
v -3.414773 -0.081509 -0.163018
v -3.414773 0.163018 0.081509
v -3.414773 0.081509 0.163018
v -3.414773 -0.081509 0.163018
v -3.414773 -0.163018 0.081509
v 3.414773 0.163018 -0.081509
v 3.414773 0.081509 -0.163018
v 3.414773 -0.081509 -0.163018
v 3.414773 -0.163018 -0.081509
v 3.414773 0.081509 0.163018
v 3.414773 0.163018 0.081509
v 3.414773 -0.163018 0.081509
v 3.414773 -0.081509 0.163018
v -3.161777 -0.081509 -0.163018
v -3.161777 -0.163018 -0.081509
v -3.161777 -0.163018 -0.163018
v -3.161777 0.081509 0.163018
v -3.161777 0.163018 0.081509
v -3.161777 0.163018 0.163018
v -3.161777 -0.163018 0.081509
v -3.161777 -0.081509 0.163018
v -3.161777 -0.163018 0.163018
v -3.161777 0.163018 -0.081509
v -3.161777 0.081509 -0.163018
v -3.161777 0.163018 -0.163018
v -2.633936 -0.163018 -0.081509
v -2.633936 -0.081509 -0.163018
v -2.610587 -0.163018 -0.163018
v -2.633936 0.163018 0.081509
v -2.633936 0.081509 0.163018
v -2.610587 0.163018 0.163018
v -2.633936 -0.081509 0.163018
v -2.633936 -0.163018 0.081509
v -2.610587 -0.163018 0.163018
v -2.633936 0.081509 -0.163018
v -2.633936 0.163018 -0.081509
v -2.610587 0.163018 -0.163018
vt 0.532426 0.619062
vt 0.532426 0.687513
vt 0.653675 0.687513
vt 0.653675 0.619062
vt 0.300781 0.646989
vt 0.300781 0.646989
vt 0.050781 0.646989
vt 0.050781 0.646989
vt 0.113281 0.646989
vt 0.238281 0.646989
vt 0.821880 0.619062
vt 0.821880 0.687513
vt 0.943129 0.687513
vt 0.943129 0.619062
vt 0.703552 0.721738
vt 0.703552 0.726809
vt 0.772003 0.726809
vt 0.772003 0.721738
vt 0.806228 0.619062
vt 0.806228 0.687513
vt 0.811299 0.687513
vt 0.811299 0.619062
vt 0.669327 0.619062
vt 0.669327 0.687513
vt 0.772003 0.584837
vt 0.703552 0.584837
vt 0.329364 0.656250
vt 0.329364 0.656250
vt 0.329364 0.906250
vt 0.329364 0.906250
vt 0.329364 0.843750
vt 0.329364 0.718750
vt 0.050781 0.915511
vt 0.050781 0.915511
vt 0.300781 0.915511
vt 0.300781 0.915511
vt 0.238281 0.915511
vt 0.113281 0.915511
vt 0.703552 0.447936
vt 0.703552 0.569185
vt 0.772003 0.569185
vt 0.772003 0.447936
vt 0.664255 0.619062
vt 0.664255 0.687513
vt 0.703552 0.737390
vt 0.703552 0.858639
vt 0.772003 0.858639
vt 0.772003 0.737390
vt 0.669327 0.345260
vt 0.669327 0.413711
vt 0.806228 0.413711
vt 0.806228 0.345260
vt 0.772003 0.311035
vt 0.703552 0.311035
vt 0.022198 0.906250
vt 0.022198 0.906250
vt 0.022198 0.656250
vt 0.022198 0.656250
vt 0.022198 0.718750
vt 0.022198 0.843750
vt 0.300781 0.934833
vt 0.300781 0.934833
vt 0.050781 0.934833
vt 0.050781 0.934833
vt 0.113281 0.934833
vt 0.238281 0.934833
vt 0.217448 0.646989
vt 0.217448 0.646989
vt 0.217448 0.646989
vt 0.217448 0.646989
vt 0.217448 0.915511
vt 0.217448 0.915511
vt 0.134115 0.915511
vt 0.134115 0.915511
vt 0.217448 0.915511
vt 0.217448 0.915511
vt 0.329364 0.822917
vt 0.329364 0.822917
vt 0.329364 0.739583
vt 0.329364 0.739583
vt 0.050781 0.627667
vt 0.050781 0.627667
vt 0.300781 0.627667
vt 0.300781 0.627667
vt 0.238281 0.627667
vt 0.113281 0.627667
vt 0.310042 0.906250
vt 0.310042 0.906250
vt 0.310042 0.656250
vt 0.310042 0.656250
vt 0.310042 0.718750
vt 0.310042 0.843750
vt 0.041520 0.656250
vt 0.041520 0.656250
vt 0.041520 0.906250
vt 0.041520 0.906250
vt 0.041520 0.843750
vt 0.041520 0.718750
vt 0.134115 0.934833
vt 0.134115 0.934833
vt 0.134115 0.934833
vt 0.134115 0.934833
vt 0.041520 0.822917
vt 0.041520 0.822917
vt 0.041520 0.739583
vt 0.041520 0.739583
vt 0.217448 0.627667
vt 0.217448 0.627667
vt 0.217448 0.934833
vt 0.217448 0.934833
vt 0.134115 0.627667
vt 0.134115 0.646989
vt 0.134115 0.646989
vt 0.134115 0.627667
vt 0.300781 0.646989
vt 0.050781 0.646989
vt 0.050781 0.627667
vt 0.300781 0.627667
vt 0.134115 0.627667
vt 0.134115 0.627667
vt 0.217448 0.627667
vt 0.217448 0.627667
vt 0.134115 0.646989
vt 0.134115 0.646989
vt 0.134115 0.646989
vt 0.134115 0.627667
vt 0.134115 0.646989
vt 0.134115 0.627667
vt 0.134115 0.646989
vt 0.134115 0.627667
vt 0.134115 0.646989
vt 0.134115 0.627667
vt 0.134115 0.646989
vt 0.134115 0.627667
vt 0.134115 0.646989
vt 0.134115 0.627667
vt 0.217448 0.627667
vt 0.217448 0.627667
vt 0.217448 0.627667
vt 0.217448 0.627667
vt 0.217448 0.627667
vt 0.217448 0.627667
vt 0.217448 0.646989
vt 0.217448 0.646989
vt 0.217448 0.646989
vt 0.217448 0.646989
vt 0.217448 0.646989
vt 0.217448 0.646989
vt 0.217448 0.934833
vt 0.134115 0.934833
vt 0.217448 0.934833
vt 0.134115 0.934833
vt 0.217448 0.934833
vt 0.134115 0.934833
vt 0.217448 0.934833
vt 0.134115 0.934833
vt 0.217448 0.934833
vt 0.134115 0.934833
vt 0.217448 0.934833
vt 0.134115 0.934833
vt 0.217448 0.915511
vt 0.217448 0.915511
vt 0.217448 0.915511
vt 0.217448 0.915511
vt 0.217448 0.915511
vt 0.217448 0.915511
vt 0.134115 0.915511
vt 0.134115 0.915511
vt 0.134115 0.915511
vt 0.134115 0.915511
vt 0.134115 0.915511
vt 0.134115 0.915511
vt 0.300781 0.934833
vt 0.300781 0.934833
vt 0.217448 0.934833
vt 0.050781 0.934833
vt 0.050781 0.934833
vt 0.310042 0.906250
vt 0.310042 0.906250
vt 0.310042 0.822917
vt 0.310042 0.739583
vt 0.310042 0.656250
vt 0.310042 0.656250
vt 0.300781 0.646989
vt 0.050781 0.646989
vt 0.050781 0.915511
vt 0.050781 0.915511
vt 0.134115 0.915511
vt 0.300781 0.915511
vt 0.300781 0.915511
vt 0.310042 0.739583
vt 0.310042 0.822917
vt 0.041520 0.656250
vt 0.041520 0.906250
vt 0.134115 0.915511
vt 0.217448 0.934833
vt 0.050781 0.627667
vt 0.300781 0.627667
vt 0.329364 0.656250
vt 0.329364 0.656250
vt 0.329364 0.906250
vt 0.329364 0.906250
vt 0.022198 0.906250
vt 0.022198 0.906250
vt 0.022198 0.822917
vt 0.022198 0.739583
vt 0.022198 0.656250
vt 0.022198 0.656250
vt 0.022198 0.739583
vt 0.022198 0.822917
vt 0.041520 0.656250
vt 0.041520 0.906250
vt 0.041520 0.982909
vt 0.041520 0.906250
vt 0.377440 0.915511
vt 0.300781 0.915511
vt 0.041520 0.656250
vt 0.041520 0.656250
vt 0.300781 0.646989
vt 0.300781 0.646989
vt 0.022198 0.906250
vt 0.022198 0.906250
vt 0.022198 0.579591
vt 0.022198 0.656250
vt 0.377440 0.627667
vt 0.300781 0.627667
vt 0.300781 0.934833
vt 0.300781 0.934833
vt 0.300781 0.646989
vt 0.310042 0.656250
vt 0.310042 0.656250
vt 0.300781 0.915511
vt 0.310042 0.906250
vt 0.310042 0.906250
vt 0.022198 0.906250
vt 0.041520 0.906250
vt 0.050781 0.934833
vt 0.050781 0.915511
vt 0.329364 0.906250
vt 0.300781 0.934833
vt 0.329364 0.656250
vt 0.300781 0.627667
vt 0.041520 0.656250
vt 0.022198 0.656250
vt 0.050781 0.646989
vt 0.050781 0.627667
vt 0.050781 0.646989
vt 0.050781 0.915511
vt 0.329364 0.656250
vt 0.329364 0.906250
vt 0.050781 0.934833
vt 0.050781 0.627667
vt 0.055431 0.014700
vt 0.152650 0.392760
vt 0.138048 0.429336
vt 0.055431 0.014700
vt 0.251386 0.601801
vt 0.265988 0.565225
vt 0.055431 0.014700
vt 0.097497 0.546648
vt 0.134074 0.561251
vt 0.300781 0.646989
vt 0.021344 0.656250
vt 0.022198 0.656250
vt 0.300781 0.934833
vt 0.300781 0.935688
vt 0.022198 0.906250
vt 0.021343 0.906250
vt 0.300781 0.626812
vt 0.300781 0.627667
vt 0.653675 0.584837
vt 0.532426 0.584837
vt 0.806228 0.737390
vt 0.806228 0.858639
vt 0.664255 0.721738
vt 0.669327 0.721738
vt 0.806228 0.579766
vt 0.772003 0.579766
vt 0.806228 0.584837
vt 0.669327 0.584837
vt 0.664255 0.584837
vt 0.806228 0.721738
vt 0.806228 0.726809
vt 0.532426 0.721738
vt 0.653675 0.721738
vt 0.806228 0.447936
vt 0.806228 0.569185
vt 0.703552 0.579766
vn 0.0000 -1.0000 0.0000
vn 1.0000 0.0000 0.0000
vn 0.0000 1.0000 0.0000
vn 0.0000 0.0000 1.0000
vn -1.0000 0.0000 0.0000
vn 0.0000 0.0000 -1.0000
vn 0.0010 -0.9996 -0.0266
vn 0.0038 -0.9996 -0.0275
vn 0.0108 -0.9995 -0.0304
vn 0.0245 -0.9992 -0.0325
vn 0.0567 -0.9970 -0.0529
vn 0.1216 -0.9861 -0.1134
vn 0.9979 0.0000 -0.0650
vn 0.9800 0.0000 0.1992
vn 0.9361 0.0000 0.3516
vn 0.8264 0.0000 0.5630
vn 0.8225 0.0000 0.5688
vn 0.9294 0.0000 0.3690
vn 0.0010 0.9996 -0.0266
vn 0.0038 0.9996 -0.0275
vn 0.0108 0.9995 -0.0304
vn 0.0245 0.9992 -0.0325
vn 0.0567 0.9970 -0.0529
vn 0.1216 0.9861 -0.1134
vn -0.9930 0.0000 -0.1179
vn -0.9406 0.0000 -0.3396
vn -0.8635 0.0000 -0.5044
vn -0.6811 0.0000 -0.7322
vn -0.5101 -0.0000 -0.8601
vn -0.3033 0.0000 -0.9529
vn 0.9979 0.0000 0.0650
vn 0.9800 0.0000 -0.1992
vn 0.9361 0.0000 -0.3516
vn 0.8264 -0.0000 -0.5630
vn 0.8225 0.0000 -0.5688
vn 0.9294 0.0000 -0.3690
vn 0.0010 0.9996 0.0266
vn 0.0038 0.9996 0.0275
vn 0.0108 0.9995 0.0304
vn 0.0245 0.9992 0.0325
vn 0.0567 0.9970 0.0529
vn 0.1216 0.9861 0.1134
vn -0.9930 0.0000 0.1179
vn -0.9406 0.0000 0.3396
vn -0.8635 0.0000 0.5044
vn -0.6811 0.0000 0.7322
vn -0.5101 0.0000 0.8601
vn -0.3033 0.0000 0.9529
vn 0.0010 -0.9996 0.0266
vn 0.0038 -0.9996 0.0275
vn 0.0108 -0.9995 0.0304
vn 0.0245 -0.9992 0.0325
vn 0.0567 -0.9970 0.0529
vn 0.1216 -0.9861 0.1134
vn 0.0000 0.3827 -0.9239
vn -0.0000 0.9239 -0.3827
vn 0.0000 0.3827 0.9239
vn 0.0000 0.9239 0.3827
vn 0.0000 -0.9239 0.3827
vn 0.0000 -0.3827 0.9239
vn 0.0000 -0.9239 -0.3827
vn 0.0000 -0.3827 -0.9239
vn 0.9268 0.2655 0.2655
vn 0.9268 -0.2655 -0.2655
vn 0.9268 0.2655 -0.2655
vn 0.9268 -0.2655 0.2655
vn 0.0000 -0.7071 -0.7071
vn 0.0000 0.7071 0.7071
vn 0.0000 -0.7071 0.7071
vn 0.0000 0.7071 -0.7071
usemtl Material
s off
f 148/1/1 151/2/1 172/3/1 165/4/1
f 164/5/2 4/6/2 5/7/2 155/8/2 153/9/2 163/10/2
f 175/11/3 168/12/3 150/13/3 145/14/3
f 143/15/4 160/16/4 156/17/4 142/18/4
f 138/19/3 141/20/3 157/21/3 162/22/3
f 139/23/5 144/24/5 143/15/5 142/18/5 141/20/5 138/19/5 137/25/5 140/26/5
f 176/27/1 3/28/1 8/29/1 170/30/1 168/31/1 175/32/1
f 161/33/2 2/34/2 6/35/2 158/36/2 156/37/2 160/38/2
f 147/39/6 166/40/6 174/41/6 146/42/6
f 154/43/1 159/44/1 144/24/1 139/23/1
f 171/45/4 152/46/4 149/47/4 169/48/4
f 151/49/2 148/50/2 147/39/2 146/42/2 145/51/2 150/52/2 149/53/2 152/54/2
f 173/55/3 1/56/3 7/57/3 167/58/3 165/59/3 172/60/3
f 170/61/6 8/62/6 1/63/6 173/64/6 171/65/6 169/66/6
f 13/67/6 72/68/6 117/69/6 90/70/6
f 9/71/4 71/72/4 70/73/4 10/74/4
f 97/75/4 110/76/4 71/72/4 9/71/4
f 102/77/3 134/78/3 129/79/3 88/80/3
f 167/81/4 7/82/4 3/83/4 176/84/4 174/85/4 166/86/4
f 158/87/4 6/88/4 4/89/4 164/90/4 162/91/4 157/92/4
f 155/93/4 5/94/4 2/95/4 161/96/4 159/97/4 154/98/4
f 81/99/4 122/100/4 78/101/4 12/102/4
f 84/103/1 106/104/1 113/105/1 94/106/1
f 15/107/4 13/67/4 90/70/4 87/108/4
f 12/102/4 78/101/4 79/109/4 11/110/4
f 100/111/4 93/112/4 14/113/4 16/114/4
f 4/6/4 67/115/4 68/116/4 5/7/4
f 7/82/4 74/117/4 75/118/4 3/83/4
f 16/114/4 77/119/4 125/120/4 100/111/4
f 87/108/4 130/121/4 80/122/4 15/107/4
f 93/112/6 114/123/6 69/124/6 14/113/6
f 14/113/7 17/125/7 40/126/7 16/114/7
f 17/125/8 18/127/8 39/128/8 40/126/8
f 18/127/9 19/129/9 38/130/9 39/128/9
f 19/129/10 20/131/10 37/132/10 38/130/10
f 20/131/11 21/133/11 36/134/11 37/132/11
f 21/133/12 22/135/12 35/136/12 36/134/12
f 16/114/13 40/126/13 34/137/13 15/107/13
f 40/126/14 39/128/14 33/138/14 34/137/14
f 39/128/15 38/130/15 32/139/15 33/138/15
f 38/130/16 37/132/16 31/140/16 32/139/16
f 37/132/17 36/134/17 30/141/17 31/140/17
f 36/134/18 35/136/18 29/142/18 30/141/18
f 15/107/19 34/137/19 28/143/19 13/67/19
f 34/137/20 33/138/20 27/144/20 28/143/20
f 33/138/21 32/139/21 26/145/21 27/144/21
f 32/139/22 31/140/22 25/146/22 26/145/22
f 31/140/23 30/141/23 24/147/23 25/146/23
f 30/141/24 29/142/24 23/148/24 24/147/24
f 13/67/25 28/143/25 17/125/25 14/113/25
f 28/143/26 27/144/26 18/127/26 17/125/26
f 27/144/27 26/145/27 19/129/27 18/127/27
f 26/145/28 25/146/28 20/131/28 19/129/28
f 25/146/29 24/147/29 21/133/29 20/131/29
f 24/147/30 23/148/30 22/135/30 21/133/30
f 11/110/31 59/149/31 52/150/31 12/102/31
f 59/149/32 60/151/32 51/152/32 52/150/32
f 60/151/33 61/153/33 50/154/33 51/152/33
f 61/153/34 62/155/34 49/156/34 50/154/34
f 62/155/35 63/157/35 48/158/35 49/156/35
f 63/157/36 64/159/36 47/160/36 48/158/36
f 9/71/37 53/161/37 59/149/37 11/110/37
f 53/161/38 54/162/38 60/151/38 59/149/38
f 54/162/39 55/163/39 61/153/39 60/151/39
f 55/163/40 56/164/40 62/155/40 61/153/40
f 56/164/41 57/165/41 63/157/41 62/155/41
f 57/165/42 58/166/42 64/159/42 63/157/42
f 10/74/43 41/167/43 53/161/43 9/71/43
f 41/167/44 42/168/44 54/162/44 53/161/44
f 42/168/45 43/169/45 55/163/45 54/162/45
f 43/169/46 44/170/46 56/164/46 55/163/46
f 44/170/47 45/171/47 57/165/47 56/164/47
f 45/171/48 46/172/48 58/166/48 57/165/48
f 12/102/49 52/150/49 41/167/49 10/74/49
f 52/150/50 51/152/50 42/168/50 41/167/50
f 51/152/51 50/154/51 43/169/51 42/168/51
f 50/154/52 49/156/52 44/170/52 43/169/52
f 49/156/53 48/158/53 45/171/53 44/170/53
f 48/158/54 47/160/54 46/172/54 45/171/54
f 76/173/2 135/174/2 133/175/2 79/109/2 78/101/2 122/100/2 123/176/2 73/177/2
f 66/178/5 111/179/5 109/180/5 118/181/5 119/182/5 67/183/5
f 67/115/5 119/184/5 117/69/5 72/68/5 69/124/5 114/123/5 115/185/5 68/116/5
f 65/186/5 107/187/5 105/188/5 70/73/5 71/72/5 110/76/5 111/189/5 66/190/5
f 91/191/3 118/181/3 109/180/3 96/192/3
f 5/94/3 68/193/3 65/194/3 2/95/3
f 10/74/4 70/73/4 105/188/4 85/195/4
f 14/113/6 69/124/6 72/68/6 13/67/6
f 2/34/6 65/186/6 66/190/6 6/35/6
f 91/191/3 96/192/3 102/77/3 88/80/3
f 6/88/1 66/178/1 67/183/1 4/89/1
f 97/75/4 9/71/4 11/110/4 103/196/4
f 74/117/2 127/197/2 125/120/2 77/119/2 80/122/2 130/121/2 131/198/2 75/118/2
f 75/199/2 131/200/2 129/79/2 134/78/2 135/201/2 76/202/2
f 73/203/2 123/204/2 121/205/2 126/206/2 127/207/2 74/208/2
f 99/209/1 82/210/1 84/103/1 94/106/1
f 8/62/6 76/173/6 73/177/6 1/63/6
f 15/107/6 80/122/6 77/119/6 16/114/6
f 11/110/4 79/109/4 133/175/4 103/196/4
f 3/28/1 75/199/1 76/202/1 8/29/1
f 1/56/3 73/203/3 74/208/3 7/57/3
f 68/193/5 115/211/5 113/105/5 106/104/5 107/212/5 65/194/5
f 10/74/4 85/195/4 81/99/4 12/102/4
f 105/213/5 107/212/5 108/214/5
f 108/214/5 107/212/5 106/104/5
f 109/215/5 111/189/5 112/216/5
f 112/216/5 111/189/5 110/76/5
f 113/105/5 115/211/5 116/217/5
f 116/217/5 115/211/5 114/218/5
f 117/69/5 119/184/5 120/219/5
f 120/219/5 119/184/5 118/220/5
f 121/205/2 123/204/2 124/221/2
f 124/221/2 123/204/2 122/222/2
f 125/223/2 127/207/2 128/224/2
f 128/224/2 127/207/2 126/206/2
f 129/225/2 131/198/2 132/226/2
f 132/226/2 131/198/2 130/121/2
f 133/175/2 135/174/2 136/227/2
f 136/227/2 135/174/2 134/228/2
f 117/69/55 120/219/55 92/229/55 90/70/55
f 120/230/56 118/181/56 91/191/56 92/231/56
f 97/75/57 98/232/57 112/216/57 110/76/57
f 98/233/58 96/192/58 109/180/58 112/234/58
f 82/210/59 83/235/59 86/236/59 84/103/59
f 83/237/60 81/99/60 85/195/60 86/238/60
f 96/192/58 98/233/58 104/239/58 102/77/58
f 98/232/57 97/75/57 103/196/57 104/240/57
f 88/80/56 89/241/56 92/231/56 91/191/56
f 89/242/55 87/108/55 90/70/55 92/229/55
f 94/106/61 95/243/61 101/244/61 99/209/61
f 95/245/62 93/112/62 100/111/62 101/246/62
f 113/105/61 116/217/61 95/243/61 94/106/61
f 116/247/62 114/123/62 93/112/62 95/245/62
f 105/188/60 108/248/60 86/238/60 85/195/60
f 108/214/59 106/104/59 84/103/59 86/236/59
f 129/79/56 132/249/56 89/241/56 88/80/56
f 132/226/55 130/121/55 87/108/55 89/242/55
f 133/175/57 136/227/57 104/240/57 103/196/57
f 136/250/58 134/78/58 102/77/58 104/239/58
f 81/99/60 83/237/60 124/251/60 122/100/60
f 83/235/59 82/210/59 121/205/59 124/221/59
f 125/120/62 128/252/62 101/246/62 100/111/62
f 128/224/61 126/206/61 99/209/61 101/244/61
f 99/209/1 126/206/1 121/205/1 82/210/1
f 153/253/5 155/254/5 154/255/5
f 156/256/5 158/257/5 157/258/5
f 159/259/5 161/260/5 160/261/5
f 162/262/5 164/5/5 163/10/5
f 165/59/63 167/263/63 166/264/63
f 168/265/64 170/266/64 169/66/64
f 171/267/65 173/268/65 172/60/65
f 174/85/66 176/269/66 175/270/66
f 165/4/67 166/271/67 147/272/67 148/1/67
f 168/273/68 169/48/68 149/47/68 150/274/68
f 159/44/69 160/275/69 143/276/69 144/24/69
f 162/277/70 163/278/70 137/25/70 138/279/70
f 139/23/67 140/280/67 153/281/67 154/43/67
f 141/282/68 142/18/68 156/17/68 157/283/68
f 151/2/69 152/284/69 171/285/69 172/3/69
f 145/286/70 146/42/70 174/41/70 175/287/70
f 153/288/6 140/26/6 137/25/6 163/278/6
