# Blender v2.81 (sub 16) OBJ File: ''
# www.blender.org
mtllib stairs.mtl
o Cube_Cube.029
v -0.741603 -0.266931 0.596811
v -0.741603 0.266931 0.596811
v -0.741603 0.266931 -0.596811
v 0.741603 -0.266931 0.596811
v 0.741603 0.266931 0.596811
v 0.741603 0.266931 -0.596811
v -0.741603 0.810263 -0.596811
v 0.741603 0.810263 -0.596811
v -0.741603 0.810263 -1.801768
v 0.741603 0.810263 -1.801768
v -0.741603 -0.266931 -4.251532
v 0.741603 -0.266931 -4.251532
v -0.741603 1.400090 -1.801768
v 0.741603 1.400090 -1.801768
v -0.741603 1.400090 -3.032257
v 0.741603 1.400090 -3.032257
v -0.741603 1.926641 -3.032257
v -0.741603 1.926641 -4.251532
v 0.741603 1.926641 -4.251532
v 0.741603 1.926641 -3.032257
vt 0.625000 0.750000
vt 0.375000 1.000000
vt 0.375000 0.750000
vt 1.151092 0.223908
vt 0.348908 1.026092
vt 0.348908 0.223908
vt 0.995198 -0.004603
vt 0.004802 0.995198
vt 0.004802 -0.004603
vt 0.329004 0.665162
vt 0.653572 0.334838
vt 0.653572 0.665162
vt 0.125000 0.500000
vt 0.125000 0.750000
vt 0.984924 0.984924
vt -0.014879 0.015076
vt 0.984924 0.015076
vt 0.673159 0.256284
vt 0.231976 0.743716
vt 0.231976 0.256284
vt 0.989383 -0.010419
vt 0.010616 0.989384
vt 0.010616 -0.010419
vt 0.450010 0.781225
vt 0.549990 0.205082
vt 0.549990 0.781225
vt 0.625000 1.000000
vt 1.151092 1.026092
vt 0.995198 0.995198
vt 0.329004 0.334838
vt 0.375000 0.500000
vt 0.000099 0.000099
vt 0.999901 0.000099
vt 0.999901 0.988465
vt 0.756573 0.988465
vt 0.756573 0.745138
vt 0.508930 0.745138
vt 0.508930 0.499500
vt 0.240094 0.499499
vt 0.240094 0.248656
vt 0.000099 0.248656
vt -0.014879 0.984924
vt 0.673159 0.743716
vt 0.989383 0.989383
vt 0.450010 0.205082
vt -0.005618 0.994183
vt -0.005618 0.005817
vt 0.994183 0.005817
vt 0.994183 0.254374
vt 0.754188 0.254374
vt 0.754188 0.505217
vt 0.485353 0.505217
vt 0.485353 0.750855
vt 0.237709 0.750855
vt 0.237709 0.994183
vt 1.015042 -0.140042
vt 1.015042 0.890042
vt -0.015042 0.890042
vt -0.015042 -0.140042
vn 0.0000 0.0000 1.0000
vn 0.0000 1.0000 0.0000
vn 0.0000 -1.0000 0.0000
vn -1.0000 0.0000 0.0000
vn 1.0000 0.0000 0.0000
vn 0.0000 0.0000 -1.0000
g Cube_Cube.029_Material.001
usemtl Material.001
s off
f 5/1/1 1/2/1 4/3/1
f 3/4/2 5/5/2 6/6/2
f 8/7/2 9/8/2 7/9/2
f 6/10/1 7/11/1 3/12/1
f 11/13/3 4/3/3 1/14/3
f 14/15/2 15/16/2 13/17/2
f 10/18/1 13/19/1 9/20/1
f 20/21/2 18/22/2 17/23/2
f 16/24/1 17/25/1 15/26/1
f 5/1/1 2/27/1 1/2/1
f 3/4/2 2/28/2 5/5/2
f 8/7/2 10/29/2 9/8/2
f 6/10/1 8/30/1 7/11/1
f 11/13/3 12/31/3 4/3/3
f 18/32/4 11/33/4 1/34/4 2/35/4 3/36/4 7/37/4 9/38/4 13/39/4 15/40/4 17/41/4
f 14/15/2 16/42/2 15/16/2
f 10/18/1 14/43/1 13/19/1
f 20/21/2 19/44/2 18/22/2
f 16/24/1 20/45/1 17/25/1
f 4/46/5 12/47/5 19/48/5 20/49/5 16/50/5 14/51/5 10/52/5 8/53/5 6/54/5 5/55/5
f 18/56/6 19/57/6 12/58/6 11/59/6
